HIERARCHY
ROOT hip
{
	OFFSET 0.000000 0.000000 0.000000 
	CHANNELS 6 Xposition Yposition Zposition Xrotation Zrotation Yrotation
	JOINT abdomen
	{
		OFFSET 0.000000 3.402643 0.000000 
		CHANNELS 3 Xrotation Zrotation Yrotation
		JOINT chest
		{
			OFFSET 0.000000 8.438565 -0.680529 
			CHANNELS 3 Xrotation Zrotation Yrotation
			JOINT neck
			{
				OFFSET 0.000000 10.207942 -0.272212 
				CHANNELS 3 Xrotation Zrotation Yrotation
				JOINT head
				{
					OFFSET 0.000000 3.130431 0.000000 
					CHANNELS 3 Xrotation Zrotation Yrotation
					End Site
					{
						OFFSET 0.000000 3.130435 0.000000 
					}
				}
			}
			JOINT lCollar
			{
				OFFSET 3.470700 6.669187 -0.816635 
				CHANNELS 3 Yrotation Zrotation Xrotation
				JOINT lShldr
				{
					OFFSET 3.198488 0.000000 0.000000 
					CHANNELS 3 Zrotation Yrotation Xrotation
					JOINT lForeArm
					{
						OFFSET 10.139888 0.000000 0.000000 
						CHANNELS 3 Yrotation Zrotation Xrotation
						JOINT lHand
						{
							OFFSET 8.370511 0.000000 0.000000 
							CHANNELS 3 Zrotation Yrotation Xrotation
							End Site
							{
								OFFSET 4.083176 0.000000 0.000000 
							}
						}
					}
				}
			}
			JOINT rCollar
			{
				OFFSET -3.470700 6.669187 -0.816635 
				CHANNELS 3 Yrotation Zrotation Xrotation
				JOINT rShldr
				{
					OFFSET -3.198488 0.000000 0.000000 
					CHANNELS 3 Zrotation Yrotation Xrotation
					JOINT rForeArm
					{
						OFFSET -10.139888 0.000000 0.000000 
						CHANNELS 3 Yrotation Zrotation Xrotation
						JOINT rHand
						{
							OFFSET -8.370511 0.000000 0.000000 
							CHANNELS 3 Zrotation Yrotation Xrotation
							End Site
							{
								OFFSET -4.083176 0.000000 0.000000 
							}
						}
					}
				}
			}
		}
	}
	JOINT lThigh
	{
		OFFSET 5.308129 -1.633274 1.361059 
		CHANNELS 3 Xrotation Zrotation Yrotation
		JOINT lShin
		{
			OFFSET -2.041588 -20.007561 0.000000 
			CHANNELS 3 Xrotation Zrotation Yrotation
			JOINT lFoot
			{
				OFFSET 0.000000 -19.190928 -1.224953 
				CHANNELS 3 Xrotation Yrotation Zrotation
				End Site
				{
					OFFSET 0.000000 -2.449906 4.627600 
				}
			}
		}
	}
	JOINT rThigh
	{
		OFFSET -5.308129 -1.633274 1.361059 
		CHANNELS 3 Xrotation Zrotation Yrotation
		JOINT rShin
		{
			OFFSET 2.041588 -20.007561 0.000000 
			CHANNELS 3 Xrotation Zrotation Yrotation
			JOINT rFoot
			{
				OFFSET 0.000000 -19.190928 -1.224953 
				CHANNELS 3 Xrotation Yrotation Zrotation
				End Site
				{
					OFFSET 0.000000 -2.449906 4.627600 
				}
			}
		}
	}
}
MOTION
Frames: 15
Frame Time: 0.016667
-1.515791 43.217087 1.458093 -2.264210 -7.250250 13.546600 -21.425699 -0.232183 3.804620 12.528000 -4.109850 2.082990 1.069440 7.953720 -14.951900 8.628470 7.398380 -6.464250 2.000000 -2.000000 0.000000 -61.405102 6.546980 -170.093002 95.469299 -0.200888 0.155624 0.081564 -0.099085 -170.750000 -2.000000 2.000000 0.000000 11.562800 11.706600 155.750000 -64.941902 0.272754 0.123854 -0.058036 -0.024213 -124.695000 19.040800 10.231859 -5.815547 -31.568287 5.553743 -2.202785 15.879411 15.565573 -3.021119 8.156175 10.679287 -7.681365 3.557864 -4.175223 -0.153775 -20.688105 -8.981226 -4.979468 
-1.404408 43.248924 1.375034 -1.901020 -7.495920 14.104700 -21.226400 -0.075814 3.916260 12.696500 -3.898690 2.138770 1.161080 8.091160 -15.096300 8.678330 7.446430 -6.532160 2.000000 -2.000000 0.000000 -62.176800 7.337810 -170.171997 95.186096 -0.201608 0.155691 0.081412 -0.098858 -170.651993 -2.000000 2.000000 0.000000 13.849400 10.588900 157.768997 -66.123596 0.270188 0.125022 -0.057680 -0.022527 -125.309998 18.288647 10.439305 -6.159277 -31.455101 5.459775 -2.203049 15.997695 15.331338 -3.019781 7.623319 10.802484 -8.016098 3.565573 -4.180997 -0.144207 -20.826933 -9.169198 -5.085567 
-1.307415 43.272774 1.316545 -1.635820 -7.692210 14.485900 -21.036900 0.053569 4.039300 12.893500 -3.765000 2.204970 1.106780 8.257520 -15.289700 8.699020 7.524050 -6.611220 2.000000 -2.000000 0.000000 -62.665298 7.796750 -170.192993 94.883400 -0.202379 0.155759 0.081230 -0.098585 -170.535004 -2.000000 2.000000 0.000000 15.422800 9.979900 159.339996 -66.758301 0.268799 0.125628 -0.057496 -0.021616 -125.642998 17.723082 10.573548 -6.438509 -31.362196 5.419432 -2.189435 16.042452 15.229975 -3.017163 7.254988 10.875894 -8.213526 3.550829 -4.167890 -0.143711 -20.969082 -9.255112 -5.210021 
-1.210422 43.296623 1.258059 -1.370390 -7.888400 14.865400 -20.847300 0.174014 4.166310 13.100100 -3.640910 2.272730 1.053230 8.423420 -15.494600 8.719860 7.611400 -6.699190 2.000000 -2.000000 0.000000 -63.143902 8.265450 -170.214005 94.590401 -0.203126 0.155821 0.081049 -0.098311 -170.417999 -2.000000 2.000000 0.000000 16.976601 9.331910 160.882004 -67.383301 0.267426 0.126209 -0.057317 -0.020703 -125.974998 17.146145 10.694775 -6.711678 -31.222189 5.365171 -2.181749 16.042049 15.116397 -3.003449 6.946626 10.934245 -8.392233 3.499684 -4.147203 -0.143705 -21.133034 -9.399226 -5.271496 
-1.077024 43.324463 1.186536 -0.946867 -8.065320 15.317100 -20.666300 0.326647 4.323600 13.258500 -3.409720 2.350290 0.835224 8.578180 -15.774700 8.671740 7.699630 -6.825560 2.000000 -2.000000 0.000000 -63.632500 8.909910 -170.244003 94.365799 -0.203698 0.155866 0.080988 -0.098220 -170.378998 -2.000000 2.000000 0.000000 18.677200 8.711830 163.018997 -68.145103 0.265743 0.126897 -0.057103 -0.019575 -126.385002 16.326771 10.756391 -7.113309 -30.998110 5.281670 -2.184107 16.066977 14.963902 -3.012764 6.472020 10.900369 -8.621245 3.428636 -4.104802 -0.143523 -21.279747 -9.592070 -5.439710 
-0.943626 43.352444 1.115014 -0.532847 -8.241840 15.778700 -20.485001 0.473741 4.494020 13.416600 -3.188030 2.430310 0.616354 8.733350 -16.046499 8.613760 7.787990 -6.942320 2.000000 -2.000000 0.000000 -64.121002 9.554370 -170.274994 94.141197 -0.204271 0.155909 0.080943 -0.098152 -170.348999 -2.000000 2.000000 0.000000 20.348301 8.023370 165.136002 -68.916496 0.264030 0.127570 -0.056897 -0.018445 -126.794998 15.517610 10.799928 -7.526867 -30.741238 5.209163 -2.149766 16.038519 14.772100 -2.993546 5.940839 10.870758 -8.866808 3.401537 -4.089233 -0.143245 -21.413393 -9.791972 -5.599190 
-0.833741 43.372295 1.063510 -0.207291 -8.378850 16.133400 -20.411699 0.602279 4.642650 13.417700 -3.032990 2.518350 0.527907 9.003870 -16.318199 8.635010 7.904540 -7.057290 2.000000 -2.000000 0.000000 -64.443398 10.023500 -170.130997 93.994698 -0.204645 0.155935 0.080928 -0.098129 -170.339996 -2.000000 2.000000 0.000000 21.638100 7.531610 166.639008 -69.551300 0.262614 0.128107 -0.056603 -0.016747 -127.410004 14.869609 10.820273 -7.835428 -30.528788 5.116511 -2.160805 16.077488 14.677692 -2.999779 5.526494 10.840511 -9.085122 3.406764 -4.083909 -0.123232 -21.531942 -9.921489 -5.692559 
-0.723859 43.392143 1.012009 0.118491 -8.505840 16.494900 -20.347799 0.734341 4.800860 13.418700 -2.877950 2.596120 0.440155 9.273970 -16.600500 8.646440 8.021220 -7.173550 2.000000 -2.000000 0.000000 -64.765800 10.502300 -169.996002 93.848198 -0.205018 0.155961 0.080913 -0.098106 -170.330002 -2.000000 2.000000 0.000000 22.917999 7.000810 168.121994 -70.195801 0.261170 0.128637 -0.056323 -0.015020 -128.035004 14.250224 10.822776 -8.124933 -30.362284 5.038330 -2.136743 16.124315 14.548015 -2.985817 5.113612 10.794919 -9.283519 3.399832 -4.077943 -0.143236 -20.377127 -10.016964 -5.537135 
-0.577425 43.412769 0.948119 0.464292 -8.671600 17.038700 -20.263700 0.891484 4.970320 13.370700 -2.732310 2.697480 0.238448 9.590180 -16.970301 8.628830 8.177220 -7.329880 2.000000 -2.000000 0.000000 -65.127296 11.010600 -169.781998 93.574799 -0.205716 0.156006 0.080763 -0.097878 -170.231995 -2.000000 2.000000 0.000000 24.324800 6.440330 169.761002 -71.065002 0.259213 0.129325 -0.055561 -0.009521 -130.016998 13.444260 10.794065 -8.315643 -30.102430 4.926335 -2.121789 16.190998 14.238959 -2.952504 4.654486 10.754910 -9.596331 3.403174 -4.075158 -0.142958 -20.456301 -10.153789 -5.628860 
-0.430993 43.433395 0.884228 0.810402 -8.837020 17.580500 -20.179100 1.052110 5.149310 13.322700 -2.586700 2.798590 0.025826 9.906860 -17.335100 8.611230 8.333230 -7.486320 2.000000 -2.000000 0.000000 -65.488800 11.528700 -169.578003 93.301399 -0.206414 0.156049 0.080628 -0.097672 -170.143997 -2.000000 2.000000 0.000000 25.731600 5.831020 171.391006 -71.943901 0.257225 0.129990 -0.054989 -0.013765 -132.000000 12.714972 10.744328 -8.495807 -29.940159 4.825640 -2.121000 16.281281 13.907410 -2.920510 4.207150 10.695631 -9.928746 3.371099 -4.051019 -0.142959 -20.543119 -10.271594 -5.777815 
-0.311711 43.445000 0.840502 0.969074 -9.041700 17.942200 -20.076799 1.281610 5.261620 13.343100 -2.422110 2.864790 -0.049389 9.947040 -17.530399 8.602040 8.382040 -7.581540 2.000000 -2.000000 0.000000 -65.908897 11.909700 -169.501007 93.106003 -0.206912 0.156076 0.080373 -0.097283 -169.977997 -2.000000 2.000000 0.000000 -153.516006 174.337006 -7.593950 -72.598198 0.255737 0.130466 -0.054462 -0.004511 -135.309998 12.398069 10.772627 -8.438280 -29.993734 4.797792 -2.113669 16.447695 13.578207 -2.883500 3.894894 10.771190 -10.107569 3.453082 -4.096560 -0.133233 -20.551783 -10.477154 -5.836303 
-0.192429 43.456596 0.796779 1.127940 -9.246290 18.304300 -19.965099 1.498690 5.368420 13.363600 -2.247810 2.939650 -0.124593 9.987230 -17.724100 8.592710 8.421110 -7.667780 2.000000 -2.000000 0.000000 -66.338699 12.290700 -169.432999 92.910698 -0.207411 0.156103 0.080120 -0.096893 -169.811996 -2.000000 2.000000 0.000000 -152.753998 174.516006 -6.588510 -73.252502 0.254245 0.130924 -0.054469 0.004758 -138.621002 11.987714 10.801508 -8.401265 -29.933567 4.737523 -2.105935 16.555008 13.252820 -2.838838 3.703329 10.801600 -10.270756 3.334556 -4.018362 -0.152297 -20.529383 -10.635362 -5.974589 
-0.052396 43.466648 0.743537 1.168470 -9.529300 18.731800 -19.943199 1.634120 5.703610 13.166200 -2.595480 3.138920 -0.214128 10.105900 -18.118500 8.573640 8.470050 -7.862130 2.000000 -2.000000 0.000000 -66.348503 12.789800 -169.005005 92.647102 -0.208084 0.156136 0.079987 -0.096686 -169.723999 -2.000000 2.000000 0.000000 -151.348007 174.712006 -6.159290 -73.799400 0.252994 0.131294 -0.055737 0.020672 -144.324005 11.704499 10.933481 -8.305787 -30.052027 4.679734 -2.128926 16.797953 12.915681 -2.810255 3.481780 10.979229 -10.445610 3.440383 -4.094965 -0.143234 -20.592073 -10.816688 -6.035547 
0.087639 43.476704 0.690294 1.199190 -9.812350 19.170300 -19.930700 1.766100 6.030050 12.978200 -2.942860 3.350320 -0.293713 10.224600 -18.512501 8.554710 8.528730 -8.054300 2.000000 -2.000000 0.000000 -66.358398 13.279100 -168.567001 92.373596 -0.208783 0.156166 0.079839 -0.096456 -169.626999 -2.000000 2.000000 0.000000 -149.951004 174.917999 -5.730090 -74.346199 0.251739 0.131652 -0.058573 0.036354 -150.016998 11.483491 11.060373 -8.220871 -30.204903 4.652366 -2.140715 16.991213 12.588633 -2.780912 3.305821 11.128991 -10.615668 3.441849 -4.093246 -0.133323 -20.654766 -10.980566 -6.132833 
0.174175 43.483665 0.646297 1.229470 -9.958690 19.552799 -19.846100 1.907560 6.185840 12.948200 -3.039460 3.442860 -0.377176 10.234700 -18.728600 8.525500 8.558340 -8.163790 2.000000 -2.000000 0.000000 -66.524498 13.533200 -168.498993 92.061096 -0.209581 0.156197 0.079854 -0.096479 -169.636993 -2.000000 2.000000 0.000000 -149.014008 174.682999 -5.954140 -74.658699 0.251020 0.131852 -0.071749 0.048742 -154.606995 11.298850 11.064408 -8.172935 -30.308439 4.623772 -2.152684 17.267300 12.279777 -2.747966 3.285660 11.127003 -10.765551 3.253074 -3.946311 -0.152022 -20.721308 -11.065119 -6.325663 
